<?xml version="1.0" encoding="UTF-8" standalone="no"?>
<svg width="20px" height="16px" viewBox="0 0 20 16" version="1.1" xmlns="http://www.w3.org/2000/svg" xmlns:xlink="http://www.w3.org/1999/xlink" xmlns:sketch="http://www.bohemiancoding.com/sketch/ns">
    <!-- Generator: Sketch 3.3.3 (12081) - http://www.bohemiancoding.com/sketch -->
    <title>Shape</title>
    <desc>Created with Sketch.</desc>
    <defs></defs>
    <g id="Page-1" stroke="none" stroke-width="1" fill="none" fill-rule="evenodd" sketch:type="MSPage">
        <g id="List" sketch:type="MSArtboardGroup" transform="translate(-277.000000, -299.000000)" fill="#828282">
            <g id="Topic2" sketch:type="MSLayerGroup" transform="translate(270.000000, 244.000000)">
                <path d="M16.722973,71 C16.5367097,71 16.3791023,70.9375 16.2501508,70.8125 L9.54467302,64.5416667 C9.4730333,64.4861111 9.37452869,64.3958333 9.24915918,64.2708333 C9.12378967,64.1458333 8.92498944,63.9184028 8.65275851,63.5885417 C8.38052757,63.2586806 8.13695252,62.9201389 7.92203336,62.5729167 C7.7071142,62.2256944 7.51547795,61.8055556 7.34712461,61.3125 C7.17877127,60.8194444 7.09459459,60.3402778 7.09459459,59.875 C7.09459459,58.3472222 7.54950682,57.1527778 8.45933126,56.2916667 C9.36915571,55.4305556 10.6264328,55 12.2311625,55 C12.6753288,55 13.12845,55.0746528 13.5905262,55.2239583 C14.0526024,55.3732639 14.4824407,55.5746528 14.8800412,55.828125 C15.2776416,56.0815972 15.6197213,56.3194444 15.9062802,56.5416667 C16.192839,56.7638889 16.46507,57 16.722973,57.25 C16.980876,57 17.2531069,56.7638889 17.5396658,56.5416667 C17.8262247,56.3194444 18.1683043,56.0815972 18.5659048,55.828125 C18.9635052,55.5746528 19.3933435,55.3732639 19.8554197,55.2239583 C20.3174959,55.0746528 20.7706172,55 21.2147834,55 C22.8195132,55 24.0767902,55.4305556 24.9866147,56.2916667 C25.8964391,57.1527778 26.3513514,58.3472222 26.3513514,59.875 C26.3513514,61.4097222 25.5310766,62.9722222 23.890527,64.5625 L17.1957951,70.8125 C17.0668436,70.9375 16.9092362,71 16.722973,71 L16.722973,71 Z" id="Shape" sketch:type="MSShapeGroup"></path>
            </g>
        </g>
    </g>
</svg>